<svg width="16" height="15" viewBox="0 0 16 15" fill="none" xmlns="http://www.w3.org/2000/svg">
<g clip-path="url(#clip0_1_484)">
<path d="M15.1645 7.60155C15.1513 3.63521 11.9253 0.430541 7.95891 0.443723C3.99257 0.456904 0.787908 3.68294 0.801089 7.64928C0.813002 11.2338 3.4491 14.1962 6.88422 14.7236L6.86754 9.7051L5.04407 9.71116L5.03717 7.6352L6.86064 7.62914L6.85538 6.04693C6.8494 4.24702 7.9183 3.24924 9.55873 3.24379C10.3442 3.24117 11.1668 3.37871 11.1668 3.37871L11.1727 5.14608L10.2671 5.14909C9.37501 5.15205 9.09856 5.70661 9.10045 6.27512L9.10492 7.62169L11.0967 7.61507L10.7852 9.69208L9.11182 9.69764L9.1285 14.7161C12.56 14.166 15.1764 11.1861 15.1645 7.60155Z" fill="#00171F"/>
</g>
<defs>
<clipPath id="clip0_1_484">
<rect width="14.3635" height="14.3635" fill="white" transform="translate(0.777222 0.46759) rotate(-0.190416)"/>
</clipPath>
</defs>
</svg>
