<svg width="15" height="15" viewBox="0 0 15 15" fill="none" xmlns="http://www.w3.org/2000/svg">
<g clip-path="url(#clip0_1_486)">
<path d="M7.56795 1.48241C9.48681 1.47603 9.71407 1.48369 10.4688 1.51485C11.1703 1.54338 11.5494 1.65994 11.8022 1.75729C12.1364 1.88523 12.3782 2.04153 12.6287 2.29037C12.8821 2.54202 13.0371 2.77996 13.1673 3.11337C13.2663 3.36552 13.3854 3.74666 13.4186 4.44508C13.4548 5.20242 13.4639 5.42962 13.4703 7.34568C13.4767 9.26453 13.469 9.4918 13.4379 10.2465C13.4093 10.948 13.2928 11.3271 13.1954 11.5799C13.0675 11.9142 12.9112 12.156 12.6624 12.4065C12.4107 12.6598 12.1728 12.8149 11.8394 12.945C11.5872 13.0441 11.2061 13.1631 10.5076 13.1963C9.75031 13.2325 9.5231 13.2417 7.60705 13.248C5.68819 13.2544 5.46093 13.2468 4.70618 13.2156C4.00474 13.1871 3.62563 13.0705 3.37282 12.9732C3.03855 12.8452 2.79677 12.6889 2.54627 12.4401C2.29295 12.1884 2.13786 11.9505 2.0077 11.6171C1.90868 11.3649 1.78958 10.9838 1.7564 10.2854C1.72022 9.52804 1.71105 9.30083 1.70468 7.38478C1.69831 5.46592 1.70597 5.23866 1.73712 4.48391C1.76565 3.78247 1.88222 3.40335 1.97957 3.15055C2.1075 2.81628 2.2638 2.5745 2.51265 2.32399C2.76429 2.07067 3.00223 1.91559 3.33564 1.78543C3.58779 1.6864 3.96893 1.56731 4.66736 1.53413C5.42189 1.49796 5.64909 1.48879 7.56795 1.48241ZM7.56365 0.189145C5.61393 0.195625 5.3699 0.204852 4.60415 0.241061C3.8412 0.277261 3.31701 0.40244 2.86314 0.580688C2.38965 0.767416 1.98929 1.01281 1.59227 1.4153C1.19243 1.815 0.949694 2.21697 0.766107 2.68889C0.59089 3.14675 0.469189 3.66895 0.43806 4.43212C0.406951 5.20089 0.399346 5.44499 0.405826 7.39471C0.412305 9.34442 0.421533 9.58846 0.457742 10.3542C0.493942 11.1172 0.619121 11.6413 0.797368 12.0952C0.984097 12.5687 1.2295 12.9691 1.63198 13.3661C2.03167 13.7631 2.43365 14.0087 2.90556 14.1894C3.36342 14.3647 3.88562 14.4864 4.64879 14.5175C5.41476 14.5486 5.65885 14.5562 7.60857 14.5497C9.55829 14.5433 9.80233 14.534 10.5681 14.4978C11.331 14.4616 11.8552 14.3364 12.3091 14.1582C12.7798 13.9743 13.1801 13.7261 13.5772 13.3264C13.9742 12.9267 14.2197 12.5247 14.4005 12.0528C14.5757 11.595 14.6974 11.0728 14.7286 10.3096C14.7597 9.54361 14.7673 9.29952 14.7608 7.3498C14.7543 5.40009 14.7451 5.15605 14.7089 4.3903C14.6727 3.62736 14.5475 3.10317 14.3693 2.64929C14.1909 2.17297 13.9455 1.77261 13.5431 1.37559C13.1434 0.978551 12.7414 0.733013 12.2695 0.552232C11.8116 0.377015 11.2894 0.255313 10.5262 0.224185C9.75746 0.19027 9.51337 0.182665 7.56365 0.189145Z" fill="#00171F"/>
<path d="M7.57526 3.68183C5.53858 3.6886 3.89172 5.34644 3.89849 7.38313C3.90526 9.41981 5.5631 11.0667 7.59978 11.0599C9.63647 11.0531 11.2833 9.39529 11.2766 7.35861C11.2698 5.32192 9.61195 3.67506 7.57526 3.68183ZM7.59548 9.76383C6.27416 9.76822 5.19895 8.70014 5.19456 7.37882C5.19017 6.0575 6.25825 4.98229 7.57957 4.9779C8.90089 4.97351 9.97609 6.04159 9.98049 7.36291C9.98488 8.68423 8.9168 9.75944 7.59548 9.76383Z" fill="#00171F"/>
<path d="M12.2709 3.52031C12.2725 3.99722 11.8866 4.38284 11.4125 4.38442C10.9356 4.386 10.55 4.00014 10.5484 3.52604C10.5468 3.04913 10.9327 2.66351 11.4068 2.66193C11.8809 2.66036 12.2693 3.04621 12.2709 3.52031Z" fill="#00171F"/>
</g>
<defs>
<clipPath id="clip0_1_486">
<rect width="14.3635" height="14.3635" fill="white" transform="translate(0.381958 0.213013) rotate(-0.190416)"/>
</clipPath>
</defs>
</svg>
