<svg xmlns="http://www.w3.org/2000/svg" width="13" height="13" viewBox="0 0 13 13" fill="none">
  <path d="M11.0339 10.4708L9.18685 8.63214C9.90667 7.73791 10.2565 6.60187 10.1645 5.45761C10.0724 4.31336 9.54542 3.24786 8.69189 2.48021C7.83836 1.71257 6.72315 1.30112 5.57557 1.33047C4.428 1.35982 3.33528 1.82773 2.5221 2.63801C1.70893 3.44828 1.23711 4.53932 1.20366 5.68679C1.17021 6.83425 1.57767 7.95092 2.34226 8.80719C3.10685 9.66346 4.17046 10.1942 5.31438 10.2904C6.45829 10.3865 7.59558 10.0408 8.49238 9.32414L10.3244 11.1627C10.3707 11.2096 10.4258 11.2468 10.4865 11.2722C10.5473 11.2976 10.6124 11.3108 10.6783 11.3109C10.7441 11.311 10.8093 11.2981 10.8701 11.2729C10.931 11.2477 10.9862 11.2107 11.0326 11.164C11.1227 11.0712 11.1732 10.947 11.1734 10.8176C11.1736 10.6883 11.1236 10.5639 11.0339 10.4708ZM5.6945 9.31914C5.00402 9.3179 4.32942 9.11195 3.75599 8.72731C3.18257 8.34268 2.73608 7.79664 2.47298 7.15825C2.20989 6.51986 2.14201 5.81779 2.27792 5.14082C2.41384 4.46385 2.74744 3.84239 3.23656 3.35502C3.72567 2.86765 4.34832 2.53627 5.02577 2.40277C5.70322 2.26928 6.40505 2.33967 7.04249 2.60504C7.67994 2.87041 8.22438 3.31885 8.60696 3.89365C8.98954 4.46845 9.19309 5.14378 9.19185 5.83426C9.1902 6.76016 8.8208 7.64748 8.16492 8.30102C7.50904 8.95456 6.6204 9.32079 5.6945 9.31914Z" fill="#667479"/>
</svg>