<svg width="15" height="15" viewBox="0 0 15 15" fill="none" xmlns="http://www.w3.org/2000/svg">
<g clip-path="url(#clip0_1_485)">
<path d="M4.64147 13.3421C10.0603 13.3241 13.01 8.82374 12.9971 4.93076C12.9967 4.80452 12.9935 4.67548 12.9874 4.54926C13.5628 4.13027 14.0587 3.61201 14.4521 3.01883C13.9158 3.25958 13.346 3.41755 12.7623 3.48733C13.3759 3.11673 13.8344 2.53621 14.0526 1.8534C13.4754 2.19812 12.8436 2.44204 12.1844 2.5747C11.7384 2.10395 11.1498 1.79323 10.5095 1.69059C9.86917 1.58794 9.21289 1.69908 8.6421 2.00683C8.0713 2.31458 7.61778 2.80179 7.35166 3.39314C7.08553 3.98449 7.02162 4.64704 7.16981 5.27836C5.99838 5.22347 4.85155 4.92303 3.80368 4.39649C2.75582 3.86995 1.8303 3.12908 1.08713 2.22191C0.713099 2.87174 0.600537 3.63961 0.772317 4.36945C0.944098 5.0993 1.38733 5.73635 2.01193 6.15114C1.54401 6.13784 1.08597 6.01339 0.675646 5.78807L0.675767 5.82454C0.67761 6.50518 0.915107 7.16418 1.34789 7.68952C1.78066 8.21485 2.38202 8.5741 3.04972 8.7062C2.6167 8.82622 2.16187 8.84501 1.72043 8.76111C1.91066 9.34584 2.2787 9.85659 2.77318 10.2221C3.26766 10.5876 3.86392 10.7896 4.47872 10.7999C3.43776 11.6232 2.14997 12.0721 0.82278 12.0744C0.587414 12.0749 0.352232 12.0612 0.118494 12.0336C1.46965 12.8941 3.03958 13.3483 4.64147 13.3421Z" fill="#00171F"/>
</g>
<defs>
<clipPath id="clip0_1_485">
<rect width="14.3635" height="14.3635" fill="white" transform="translate(0.0795898 0.340271) rotate(-0.190416)"/>
</clipPath>
</defs>
</svg>
