<svg width="16" height="15" viewBox="0 0 16 15" fill="none" xmlns="http://www.w3.org/2000/svg">
<g clip-path="url(#clip0_1_487)">
<path d="M14.919 4.34746C14.919 4.34746 14.7754 3.35764 14.3419 2.92425C13.793 2.35377 13.1814 2.353 12.9008 2.32027C10.8917 2.18107 7.8759 2.19109 7.8759 2.19109L7.87029 2.19111C7.87029 2.19111 4.85454 2.20113 2.8464 2.35368C2.56598 2.38828 1.95442 2.39312 1.40928 2.96723C0.9787 3.40349 0.844529 4.39424 0.844529 4.39424C0.844529 4.39424 0.70252 5.55894 0.706379 6.72036L0.709997 7.80883C0.713857 8.97025 0.860799 10.134 0.860799 10.134C0.860799 10.134 1.00436 11.1238 1.43502 11.5572C1.98397 12.1277 2.70207 12.1057 3.02208 12.1663C4.17264 12.2719 7.90667 12.2932 7.90667 12.2932C7.90667 12.2932 10.9252 12.2775 12.9334 12.1278C13.2138 12.0932 13.8253 12.0883 14.3705 11.5142C14.8011 11.078 14.938 10.0872 14.938 10.0872C14.938 10.0872 15.0773 8.92531 15.0734 7.7611L15.0698 6.67262C15.0659 5.51121 14.919 4.34746 14.919 4.34746ZM6.41205 9.11121L6.39864 5.07432L10.2852 7.08689L6.41205 9.11121Z" fill="#00171F"/>
</g>
<defs>
<clipPath id="clip0_1_487">
<rect width="14.3635" height="14.3635" fill="white" transform="translate(0.684326 0.0856934) rotate(-0.190416)"/>
</clipPath>
</defs>
</svg>
