<svg width="70" height="25" viewBox="0 0 70 25" fill="none" xmlns="http://www.w3.org/2000/svg">
<g clip-path="url(#clip0_1_253)">
<path d="M20.1828 20.1305C20.5671 20.1312 20.885 20.2619 21.1397 20.5195C21.4007 20.7771 21.5261 21.0979 21.5254 21.4788C21.5248 21.8598 21.3982 22.1738 21.1363 22.4368C20.8807 22.6935 20.5623 22.823 20.178 22.8223L19.3495 22.8209L19.347 24.2239L18.6791 24.2227L18.6865 20.131L20.1828 20.1337L20.1828 20.1305ZM20.1791 22.1875C20.5728 22.1882 20.8569 21.8903 20.8576 21.4745C20.8584 21.0586 20.5754 20.7598 20.1816 20.7591L19.3532 20.7576L19.3506 22.1828L20.1791 22.1843L20.1791 22.1875Z" fill="#103559"/>
<path d="M22.5277 23.0581C22.6236 23.4683 22.9995 23.6945 23.509 23.6954C23.8587 23.696 24.122 23.5823 24.3022 23.3629L24.8479 23.6451C24.5474 24.0369 24.0975 24.2324 23.5047 24.2313C23.0085 24.2304 22.6024 24.095 22.2965 23.8309C21.9906 23.5609 21.838 23.2209 21.8388 22.8109C21.8395 22.4009 21.9933 22.0731 22.2935 21.8042C22.5937 21.5295 22.9869 21.3955 23.4598 21.3963C23.9061 21.3971 24.2755 21.5384 24.5614 21.8142C24.8506 22.09 24.9966 22.4299 24.9959 22.8224C24.9958 22.8809 24.989 22.9629 24.9721 23.0654L22.531 23.061L22.5277 23.0581ZM24.3269 22.5869C24.2344 22.1504 23.8852 21.9213 23.4522 21.9205C22.9627 21.9197 22.6192 22.1738 22.5252 22.5837L24.3269 22.5869Z" fill="#103559"/>
<path d="M26.8918 21.8868L26.1671 21.8855L26.1646 23.2925C26.164 23.6681 26.4087 23.6622 26.8887 23.6407L26.8876 24.2105C25.9212 24.3266 25.5308 24.0617 25.5321 23.2945L25.5347 21.8875L24.9975 21.8866L24.9986 21.2754L25.5358 21.2763L25.5369 20.6429L26.1697 20.4562L26.1682 21.2775L26.8929 21.2788L26.8918 21.8899L26.8918 21.8868Z" fill="#103559"/>
<path d="M28.448 22.5691C28.8747 22.6607 29.4276 22.8347 29.4146 23.4122C29.4141 23.6702 29.3085 23.8752 29.1038 24.0214C28.8991 24.1676 28.6434 24.2405 28.3338 24.2399C27.7866 24.2389 27.3811 24.0008 27.2044 23.6076L27.7191 23.3183C27.8118 23.5764 28.016 23.7087 28.3317 23.7093C28.6474 23.7099 28.8039 23.6075 28.8043 23.4082C28.8046 23.2352 28.5732 23.1322 28.2787 23.0613C27.864 22.958 27.3051 22.7957 27.3181 22.227C27.3186 21.9778 27.4121 21.7786 27.6078 21.6295C27.8005 21.4774 28.0472 21.4045 28.3328 21.405C28.7928 21.4058 29.1622 21.6176 29.357 21.9697L28.8514 22.2444C28.7586 22.039 28.5814 21.9361 28.3319 21.9356C28.1064 21.9352 27.9288 22.0317 27.9285 22.2222C27.9282 22.4011 28.1595 22.4924 28.448 22.575L28.448 22.5691Z" fill="#103559"/>
<path d="M33.208 20.7559C32.7107 20.7145 32.4685 20.9041 32.4677 21.3216L32.4676 21.3777L33.2069 21.379L33.2059 21.9773L32.4665 21.9759L32.4625 24.2473L31.7845 24.2461L31.7886 21.9747L31.3116 21.9739L31.3127 21.3757L31.7896 21.3765L31.7897 21.3204C31.7911 20.5353 32.2825 20.1062 33.2091 20.1577L33.208 20.7559Z" fill="#103559"/>
<path d="M33.9795 23.84C33.6746 23.5642 33.5193 23.23 33.5201 22.8318C33.5208 22.4335 33.6773 22.0999 33.9831 21.8251C34.2889 21.5504 34.6659 21.4163 35.1011 21.4171C35.5364 21.4179 35.9129 21.5533 36.2177 21.8291C36.5226 22.105 36.6779 22.4391 36.6772 22.8374C36.6764 23.2357 36.5199 23.5693 36.2141 23.844C35.9083 24.1188 35.5378 24.2528 35.0961 24.252C34.6543 24.2512 34.2843 24.1158 33.9795 23.84ZM35.0971 23.6868C35.3602 23.6873 35.5812 23.6057 35.7601 23.4449C35.939 23.2842 36.0304 23.0793 36.0308 22.8362C36.0312 22.5932 35.9406 22.388 35.7623 22.2266C35.5839 22.0652 35.3632 21.9828 35.1001 21.9823C34.837 21.9819 34.616 22.0635 34.4371 22.2242C34.2582 22.385 34.1668 22.5898 34.1664 22.8329C34.166 23.076 34.2566 23.2811 34.4349 23.4425C34.6133 23.6039 34.834 23.6863 35.0971 23.6868Z" fill="#103559"/>
<path d="M37.6448 21.939C37.8089 21.5944 38.1229 21.4225 38.5739 21.4233L38.5728 22.0738C38.3277 22.0552 38.1086 22.1123 37.9221 22.239C37.7356 22.3627 37.6437 22.5683 37.6432 22.8527L37.6407 24.2565L36.9903 24.2554L36.9953 21.4689L37.6457 21.47L37.6448 21.939Z" fill="#103559"/>
<path d="M43.3066 23.0976C43.306 23.4312 43.1936 23.7105 42.9662 23.9325C42.7389 24.1545 42.4633 24.2652 42.1365 24.2646L40.4631 24.2616L40.4705 20.1667L42.0198 20.1695C42.3375 20.1701 42.6096 20.2818 42.8271 20.4982C43.0506 20.7146 43.1591 20.9848 43.1585 21.3057C43.1579 21.6615 43.0243 21.9376 42.7606 22.1404C43.0992 22.3285 43.3044 22.6688 43.3036 23.0944L43.3066 23.0976ZM41.1108 20.8001L41.1089 21.877L42.0167 21.8786C42.3011 21.8791 42.5194 21.6444 42.52 21.3426C42.5205 21.0408 42.3031 20.8054 42.0186 20.8049L41.1108 20.8032L41.1108 20.8001ZM42.1376 23.6324C42.4342 23.6329 42.6676 23.3824 42.6682 23.0615C42.6688 22.7407 42.4362 22.4893 42.1397 22.4888L41.1078 22.4869L41.1058 23.6337L42.1376 23.6356L42.1376 23.6324Z" fill="#103559"/>
<path d="M44.6267 23.0976C44.7224 23.5078 45.0979 23.734 45.6069 23.7349C45.9562 23.7355 46.2193 23.6217 46.3993 23.4024L46.9444 23.6845C46.6443 24.0764 46.1948 24.2718 45.6027 24.2708C45.107 24.2699 44.7013 24.1345 44.3957 23.8703C44.0902 23.6004 43.9377 23.2604 43.9385 22.8504C43.9392 22.4404 44.0928 22.1126 44.3927 21.8437C44.6926 21.569 45.0854 21.435 45.5578 21.4358C46.0036 21.4366 46.3726 21.5778 46.6616 21.8536C46.9505 22.1295 47.0963 22.4694 47.0956 22.8619C47.0955 22.9204 47.0887 23.0024 47.0718 23.1049L44.6333 23.1005L44.6267 23.0976ZM46.424 22.6264C46.3316 22.1898 45.9827 21.9608 45.5502 21.96C45.0612 21.9591 44.7181 22.2133 44.6242 22.6232L46.4273 22.6264L46.424 22.6264Z" fill="#103559"/>
<path d="M48.3377 22.6046C48.7645 22.6963 49.3174 22.8702 49.3043 23.4477C49.3038 23.7057 49.1983 23.9107 48.9936 24.057C48.7888 24.2032 48.5332 24.276 48.2235 24.2754C47.6763 24.2745 47.2709 24.0363 47.0942 23.6431L47.6088 23.3538C47.7015 23.612 47.9058 23.7443 48.2214 23.7448C48.5371 23.7454 48.6936 23.6431 48.694 23.4437C48.6943 23.2707 48.463 23.1677 48.1685 23.0968C47.7538 22.9935 47.1948 22.8312 47.2079 22.2625C47.2083 22.0133 47.3019 21.8142 47.4976 21.665C47.6903 21.5129 47.9369 21.44 48.2225 21.4405C48.6825 21.4414 49.052 21.6531 49.2468 22.0053L48.7412 22.2799C48.6483 22.0745 48.4711 21.9716 48.2216 21.9712C47.9961 21.9708 47.8186 22.0672 47.8182 22.2578C47.8179 22.4366 48.0492 22.5279 48.3377 22.6105L48.3377 22.6046Z" fill="#103559"/>
<path d="M51.5172 21.9308L50.7938 21.9295L50.7912 23.3365C50.7906 23.7121 51.0349 23.7062 51.5141 23.6847L51.513 24.2545C50.5483 24.3706 50.1584 24.1057 50.1598 23.3385L50.1623 21.9315L49.6229 21.9306L49.624 21.3194L50.1634 21.3203L50.1646 20.6869L50.7963 20.5002L50.7948 21.3215L51.5183 21.3228L51.5172 21.934L51.5172 21.9308Z" fill="#103559"/>
<path d="M15.6775 2.51702C15.5964 1.70219 15.2693 1.5374 14.6338 1.53627L11.9262 1.53143C11.332 1.53037 11.1888 1.63116 10.962 2.28439L8.91953 8.88347L6.90067 2.27714C6.67621 1.6231 6.53339 1.52179 5.93913 1.52073L3.2284 1.51589C2.59283 1.51475 2.26522 1.67837 2.18114 2.4929L0.721578 15.4526C0.660364 15.9198 0.701343 16.1062 1.11118 16.1669L4.2088 16.6209C4.67902 16.6817 4.78407 16.5808 4.84507 16.2336L5.53281 10.1626L6.97811 15.8522C7.12028 16.3198 7.30426 16.5064 7.77776 16.5072L10.034 16.5113C10.5044 16.5121 10.6922 16.3293 10.836 15.8591L12.2826 10.1747L12.9677 16.2481C13.0275 16.5956 13.1321 16.6968 13.6026 16.6376L16.7018 16.1948C17.1119 16.1355 17.1535 15.9524 17.094 15.4818L15.6775 2.51702Z" fill="#103559"/>
<path d="M23.1334 5.0163C19.6562 5.01009 17.7621 7.39007 17.7562 10.6765C17.7504 13.9629 19.6359 16.3496 23.1132 16.3559C26.5904 16.3621 28.4845 13.9821 28.4904 10.6957C28.4962 7.40925 26.6107 5.02252 23.1334 5.0163ZM23.1198 12.6474C22.2851 12.6459 21.8393 11.8631 21.8414 10.6807C21.8435 9.49832 22.2921 8.71708 23.1268 8.71857C23.9615 8.72007 24.4073 9.5029 24.4052 10.6853C24.4031 11.8676 23.9545 12.6489 23.1198 12.6474Z" fill="#103559"/>
<path d="M36.2985 5.04617C35.5857 5.0449 30.252 5.17699 29.9041 5.6642C29.7619 5.8276 29.7615 6.05106 29.7608 6.43502L29.909 15.2917C29.9265 16.1037 30.1121 16.3684 30.8218 16.3697L33.3072 16.3741C34.02 16.3754 34.2223 16.1114 34.2238 15.2994L34.2347 9.18428C34.5408 9.08412 34.6418 9.04338 34.9888 9.02197C35.4556 9.00392 35.6793 9.14595 35.8237 9.53017C35.9239 9.93635 35.9449 10.547 35.9434 11.3778L35.9175 15.2993C35.916 16.1113 36.1395 16.376 36.8523 16.3773L39.3977 16.3819C40.1105 16.3831 40.2939 16.1191 40.3143 15.3071L40.4879 9.90359C40.5092 8.58178 40.2275 7.36328 39.5573 6.46826C38.8461 5.57317 37.7873 5.04254 36.3017 5.03988L36.2985 5.04617Z" fill="#103559"/>
<path d="M45.8493 6.31685L43.2908 6.31228C42.5908 6.31103 42.3891 6.55208 42.3876 7.36409L42.3734 15.318C42.372 16.1269 42.5728 16.3906 43.2728 16.3919L45.8715 16.3965C46.5715 16.3978 46.7919 16.1348 46.7933 15.3259L46.7673 7.37192C46.7687 6.58185 46.5493 6.3181 45.8493 6.31685Z" fill="#103559"/>
<path d="M44.7669 0.960164C43.2516 0.957456 42.3974 1.88902 42.3951 3.16085C42.3929 4.43268 43.2437 5.36728 44.759 5.36999C46.2743 5.3727 47.1285 4.44114 47.1308 3.16931C47.1331 1.89748 46.2822 0.962871 44.7669 0.960164Z" fill="#103559"/>
<path d="M55.7455 5.40452L54.1718 5.40171L54.1767 2.6633C54.1781 1.85215 53.9702 1.60655 53.2491 1.60526L50.8067 1.60089C50.0824 1.5996 49.8543 1.86329 49.8529 2.65557L49.848 5.39398L48.6076 5.39176C47.9249 5.39054 47.758 5.51286 47.7569 6.14166L47.7529 8.35502C47.7518 8.98382 47.9183 9.10673 48.601 9.10795L49.8414 9.11017L49.8345 12.9647C49.8298 15.5616 51.2124 16.7211 53.8214 16.7257C54.5875 16.7271 55.3536 16.6687 56.0782 16.5254C56.3892 16.4662 56.4727 16.3846 56.4733 16.0797L56.3763 12.9732C56.3767 12.7091 56.2327 12.6083 55.9633 12.6675C55.7357 12.7269 55.508 12.7673 55.1971 12.7668C54.5978 12.7657 54.1622 12.5606 54.1638 11.6897L54.1684 9.11161L55.7421 9.11442C56.4248 9.11564 56.5917 8.99333 56.5928 8.36453L56.5968 6.15117C56.5979 5.52237 56.4315 5.39946 55.7488 5.39824L55.7455 5.40452Z" fill="#103559"/>
<path d="M62.5972 5.08686C59.1199 5.08065 57.2259 7.46063 57.22 10.747C57.2141 14.0335 59.0997 16.4202 62.5769 16.4264C66.0542 16.4326 67.9483 14.0527 67.9541 10.7662C67.96 7.47981 66.0745 5.09307 62.5972 5.08686ZM62.5836 12.7179C61.7489 12.7165 61.303 11.9336 61.3052 10.7512C61.3073 9.56888 61.7559 8.78764 62.5906 8.78913C63.4253 8.79062 63.8711 9.57346 63.869 10.7558C63.8669 11.9382 63.4182 12.7194 62.5836 12.7179Z" fill="#103559"/>
<path d="M68.9616 5.54229C68.5973 5.27846 67.9995 5.42945 67.6213 5.87911C67.2432 6.32877 67.2327 6.90775 67.5939 7.17158C67.9582 7.43541 68.556 7.28442 68.9342 6.83476C69.3123 6.3851 69.3228 5.80612 68.9616 5.54229Z" fill="#103559"/>
<path d="M60.3778 4.76133C60.8067 4.69625 61.0887 4.15428 61.0069 3.54894C60.9252 2.94361 60.5149 2.50388 60.086 2.56896C59.6571 2.63405 59.3752 3.17602 59.4569 3.78135C59.5386 4.38668 59.9489 4.82641 60.3778 4.76133Z" fill="#103559"/>
<path d="M65.933 5.32773C66.5257 5.62826 67.4247 5.06348 67.9378 4.06507C68.4509 3.06666 68.3873 2.01189 67.7913 1.71135C67.1986 1.41082 66.2995 1.9756 65.7864 2.97401C65.2733 3.97242 65.337 5.02719 65.933 5.32773Z" fill="#103559"/>
<path d="M62.8632 4.45225C63.461 4.52941 64.0425 3.74735 64.1598 2.70766C64.2771 1.66479 63.888 0.760522 63.2873 0.683358C62.6896 0.6062 62.108 1.38826 61.9907 2.42795C61.8734 3.47082 62.2625 4.37509 62.8632 4.45225Z" fill="#103559"/>
</g>
<defs>
<clipPath id="clip0_1_253">
<rect width="68.8249" height="23.9391" fill="white" transform="translate(0.725891 0.566467) rotate(0.102381)"/>
</clipPath>
</defs>
</svg>
